<mxfile host="app.diagrams.net" modified="2023-06-09T04:33:05.563Z" agent="Mozilla/5.0 (Windows NT 10.0; Win64; x64) AppleWebKit/537.36 (KHTML, like Gecko) Chrome/113.0.0.0 Safari/537.36" version="21.3.7" etag="6GvuWj3bOlSypNCrCylG" type="github">
  <diagram name="PÃ¡gina-1" id="kKddRZSG0wANjCUJgD22">
    <mxGraphModel>
      <root>
        <mxCell id="0" />
        <mxCell id="1" parent="0" />
      </root>
    </mxGraphModel>
  </diagram>
</mxfile>
